<?xml version="1.0" standalone="no"?>
<svg viewBox="0 0 200 200" xmlns="http://www.w3.org/2000/svg">
  <path fill="#D4AF37" d="M31.4,-59.5C38.8,-50.1,41.6,-37.9,46.1,-27.5C50.6,-17.1,56.7,-8.6,61.4,2.7C66.1,14,69.4,28,64.3,37.3C59.2,46.6,45.7,51.2,33.6,55.1C21.5,59.1,10.7,62.4,-1.6,65.1C-13.9,67.9,-27.8,70,-37.5,64.7C-47.2,59.3,-52.8,46.5,-55.2,34.5C-57.6,22.5,-56.8,11.2,-58.3,-0.8C-59.7,-12.9,-63.4,-25.8,-58.6,-33.8C-53.9,-41.7,-40.7,-44.8,-29.6,-52C-18.4,-59.2,-9.2,-70.7,1.4,-73.1C12,-75.5,24,-68.9,31.4,-59.5Z" transform="translate(100 100)" />
</svg>
